<svg aria-hidden="true" style="position:absolute;width:0;height:0" xmlns="http://www.w3.org/2000/svg" overflow="hidden"><defs>
<symbol id="icon-close" viewBox="0 0 32 32"><path d="M32 16c0 8.837-7.163 16-16 16S0 24.837 0 16 7.163 0 16 0s16 7.163 16 16z"/><path stroke-width="1.067" d="M31.467 16c0 8.542-6.925 15.467-15.467 15.467S.533 24.542.533 16C.533 7.458 7.458.533 16 .533S31.467 7.458 31.467 16z"/><path d="M22.4 10.782L21.218 9.6l-4.685 4.685L11.848 9.6l-1.182 1.182 4.685 4.685-4.685 4.685 1.182 1.182 4.685-4.685 4.685 4.685 1.182-1.182-4.685-4.685 4.685-4.685z"/></symbol>
<symbol id="icon-mail" viewBox="0 0 32 32"><path d="M26.667 5.333H5.334A2.662 2.662 0 002.682 8l-.014 16c0 1.467 1.2 2.667 2.667 2.667h21.333c1.467 0 2.667-1.2 2.667-2.667V8c0-1.467-1.2-2.667-2.667-2.667zm-.534 5.668l-9.426 5.892a1.343 1.343 0 01-1.421-.004l.006.003L5.866 11A1.133 1.133 0 117.07 9.083l-.004-.003 8.933 5.586 8.933-5.588a1.132 1.132 0 111.204 1.916l-.005.003z"/></symbol>
<symbol id="icon-person" viewBox="0 0 32 32"><path d="M16 16a5.333 5.333 0 100-10.666A5.333 5.333 0 1016 16zm0 2.667c-3.561 0-10.667 1.787-10.667 5.333v1.333c0 .732.599 1.333 1.333 1.333h18.667c.732 0 1.333-.601 1.333-1.333V24c0-3.547-7.108-5.333-10.667-5.333z"/></symbol>
<symbol id="icon-phone" viewBox="0 0 32 32"><path d="M24.882 19.774l-3.268-.373a2.552 2.552 0 00-2.11.732l-2.368 2.368c-3.669-1.894-6.585-4.81-8.427-8.372l-.051-.108 2.382-2.377a2.553 2.553 0 00.733-2.122l.001.012-.373-3.243a2.578 2.578 0 00-2.557-2.276h-2.23c-1.454 0-2.663 1.209-2.574 2.661.683 10.987 9.468 19.762 20.444 20.444 1.452.089 2.663-1.12 2.663-2.574V22.32v-.012a2.549 2.549 0 00-2.253-2.532l-.012-.001z"/></symbol></defs>

</svg>